<svg xmlns="http://www.w3.org/2000/svg" viewBox="0 0 512 512" style="height: 512px; width: 512px;">
  <defs>
    <linearGradient id="rainbow" x1="0%" y1="0%" x2="100%" y2="0%">
      <stop offset="0%" stop-color="lightgreen">
        <animate attributeName="stop-color" values="lightgreen;rgb(172,172,0);red;hotpink;rgb(163,37,163);rgb(21,58,195);cyan;lightgreen" dur="3s" repeatCount="indefinite" />
      </stop>
      <stop offset="14%" stop-color="cyan">
        <animate attributeName="stop-color" values="cyan;lightgreen;rgb(172,172,0);red;hotpink;rgb(163,37,163);rgb(21,58,195);cyan" dur="3s" repeatCount="indefinite" />
      </stop>
      <stop offset="28%" stop-color="rgb(21, 58, 195)">
        <animate attributeName="stop-color" values="rgb(21,58,195);cyan;lightgreen;rgb(172,172,0);red;hotpink;rgb(163,37,163);rgb(21,58,195)" dur="3s" repeatCount="indefinite" />
      </stop>
      <stop offset="42%" stop-color="rgb(163, 37, 163)">
        <animate attributeName="stop-color" values="rgb(163,37,163);rgb(21,58,195);cyan;lightgreen;rgb(172,172,0);red;hotpink;rgb(163,37,163)" dur="3s" repeatCount="indefinite" />
      </stop>
      <stop offset="56%" stop-color="hotpink">
        <animate attributeName="stop-color" values="hotpink;rgb(163,37,163);rgb(21,58,195);cyan;lightgreen;rgb(172,172,0);red;hotpink" dur="3s" repeatCount="indefinite" />
      </stop>
      <stop offset="70%" stop-color="red">
        <animate attributeName="stop-color" values="red;hotpink;rgb(163,37,163);rgb(21,58,195);cyan;lightgreen;rgb(172,172,0);red" dur="3s" repeatCount="indefinite" />
      </stop>
      <stop offset="85%" stop-color="rgb(172, 172, 0)">
        <animate attributeName="stop-color" values="rgb(172,172,0);red;hotpink;rgb(163,37,163);rgb(21,58,195);cyan;lightgreen;rgb(172,172,0)" dur="3s" repeatCount="indefinite" />
      </stop>
      <stop offset="100%" stop-color="lightgreen">
        <animate attributeName="stop-color" values="lightgreen;rgb(172,172,0);red;hotpink;rgb(163,37,163);rgb(21,58,195);cyan;lightgreen" dur="3s" repeatCount="indefinite" />
      </stop>
    </linearGradient>
  </defs>

  <g transform="translate(0,0)">
    <!-- Applying gradient -->
    <path fill="url(#rainbow)" d="M256 68.02L169.7 240.7l14.8 44.5-17 5.6-15.2-45.6-66.42-53-12.18 60.9 12.62 12.6-12.66 12.6-15.21-15.2-30.53-20.4 25.15 163.4 39.17-65.2 89.66 35.8 30.9 46.4h86.4l30.9-46.4 89.7-35.8 39.1 65.2 25.2-163.4-30.6 20.4-15.2 15.2-12.6-12.6 12.6-12.6-12.2-60.9-66.4 53-15.2 45.6-17-5.6 14.8-44.5zm0 122.58l55.7 92.8 1.9 3.2-17.5 70-20.4 20.3h-39.4l-20.4-20.3-17.5-70zm0 34.8l-38.4 64 14.5 58 11.6 11.7h24.6l11.6-11.7 14.5-58z" />
  </g>
</svg>
